# xmcd
#
# Track frame offsets:
#	150
#	13855
#	35705
#	58115
#	82850
#	101320
#	125640
#	146238
#	177353
#	196983
#	228528
#	251878
#
# Disc length: 3730 seconds
# Revision: 2
# Processed by: cddbd v1.5.2PL0 Copyright (c) Steve Scherf et al.
# Submitted via: dBpowerAMP V12.0
#
DISCID=ab0e900c
DTITLE=Various Artist - ELECTRIC BLUES (RCD Collection 9) [dBP-LITE-FLAC@]
DYEAR=1993
DGENRE=Blues
TTITLE0=B.B. King - Sneakin' Around With You
TTITLE1=John Mayall - A Big Man
TTITLE2=Robert Cray, Albert Collins and Johnny Copeland - Black Cat Bone
TTITLE3=Jimi Hendrix - Catfish Blues
TTITLE4=Lonnie Brooks - A Man's Got to Do What a Man's Got to Do
TTITLE5=Jimmy Witherspoon - Killing Time
TTITLE6=Johnny Winter - Bad Girl Blues
TTITLE7=Red Devils, The - Devil Woman
TTITLE8=Sherman Robertson - Out of Sight, Out of Mind
TTITLE9=Jay Owens - Wishing Well
TTITLE10=Saffire, the Uppity Blues Women - Seemed Like a Good Idea at the Time
TTITLE11=Zakiya Hooker - Mean Mean World
EXTD=
EXTT0=
EXTT1=
EXTT2=
EXTT3=
EXTT4=
EXTT5=
EXTT6=
EXTT7=
EXTT8=
EXTT9=
EXTT10=
EXTT11=
PLAYORDER=
